<mxfile host="65bd71144e">
    <diagram id="fECts557okDQ3qRtLXVx" name="Страница 1">
        <mxGraphModel dx="872" dy="599" grid="1" gridSize="10" guides="1" tooltips="1" connect="1" arrows="1" fold="1" page="1" pageScale="1" pageWidth="827" pageHeight="1169" math="0" shadow="0">
            <root>
                <mxCell id="0"/>
                <mxCell id="1" parent="0"/>
                <mxCell id="55" value="" style="rounded=0;whiteSpace=wrap;html=1;opacity=20;fillColor=#d80073;fontColor=#ffffff;strokeColor=#A50040;" vertex="1" parent="1">
                    <mxGeometry x="340" y="110" width="370" height="130" as="geometry"/>
                </mxCell>
                <mxCell id="54" value="" style="rounded=0;whiteSpace=wrap;html=1;opacity=20;fillColor=#76608a;fontColor=#ffffff;strokeColor=#432D57;" vertex="1" parent="1">
                    <mxGeometry x="414" y="280" width="300" height="240" as="geometry"/>
                </mxCell>
                <mxCell id="28" value="" style="shape=umlActor;verticalLabelPosition=bottom;verticalAlign=top;html=1;outlineConnect=0;fillColor=#0050ef;strokeColor=#001DBC;fontColor=#ffffff;" vertex="1" parent="1">
                    <mxGeometry x="100" y="300" width="60" height="80" as="geometry"/>
                </mxCell>
                <mxCell id="37" value="" style="group" vertex="1" connectable="0" parent="1">
                    <mxGeometry x="160" y="290" width="57" height="54" as="geometry"/>
                </mxCell>
                <mxCell id="31" value="" style="shape=mxgraph.cisco.computers_and_peripherals.terminal;sketch=0;html=1;pointerEvents=1;dashed=0;fillColor=#036897;strokeColor=#ffffff;strokeWidth=2;verticalLabelPosition=bottom;verticalAlign=top;align=center;outlineConnect=0;" vertex="1" parent="37">
                    <mxGeometry width="57" height="54" as="geometry"/>
                </mxCell>
                <mxCell id="36" value="" style="aspect=fixed;html=1;points=[];align=center;image;fontSize=12;image=img/lib/azure2/general/Browser.svg;" vertex="1" parent="37">
                    <mxGeometry x="18.75" y="14.600000000000023" width="23.5" height="18.8" as="geometry"/>
                </mxCell>
                <mxCell id="44" value="" style="sketch=0;aspect=fixed;html=1;points=[];align=center;image;fontSize=12;image=img/lib/mscae/CustomDomain.svg;" vertex="1" parent="1">
                    <mxGeometry x="448.57" y="320" width="71.43" height="60" as="geometry"/>
                </mxCell>
                <mxCell id="45" value="" style="shape=mxgraph.cisco.servers.fileserver;sketch=0;html=1;pointerEvents=1;dashed=0;fillColor=#036897;strokeColor=#ffffff;strokeWidth=2;verticalLabelPosition=bottom;verticalAlign=top;align=center;outlineConnect=0;" vertex="1" parent="1">
                    <mxGeometry x="530" y="410" width="53" height="70" as="geometry"/>
                </mxCell>
                <mxCell id="46" value="" style="shape=mxgraph.cisco.servers.file_server;sketch=0;html=1;pointerEvents=1;dashed=0;fillColor=#036897;strokeColor=#ffffff;strokeWidth=2;verticalLabelPosition=bottom;verticalAlign=top;align=center;outlineConnect=0;" vertex="1" parent="1">
                    <mxGeometry x="606" y="150" width="43" height="58" as="geometry"/>
                </mxCell>
                <mxCell id="48" value="" style="shape=mxgraph.cisco.servers.fileserver;sketch=0;html=1;pointerEvents=1;dashed=0;fillColor=#036897;strokeColor=#ffffff;strokeWidth=2;verticalLabelPosition=bottom;verticalAlign=top;align=center;outlineConnect=0;" vertex="1" parent="1">
                    <mxGeometry x="583" y="410" width="53" height="70" as="geometry"/>
                </mxCell>
                <mxCell id="49" value="" style="shape=mxgraph.cisco.servers.fileserver;sketch=0;html=1;pointerEvents=1;dashed=0;fillColor=#036897;strokeColor=#ffffff;strokeWidth=2;verticalLabelPosition=bottom;verticalAlign=top;align=center;outlineConnect=0;" vertex="1" parent="1">
                    <mxGeometry x="636" y="410" width="53" height="70" as="geometry"/>
                </mxCell>
                <mxCell id="50" value="" style="shape=mxgraph.cisco.servers.file_server;sketch=0;html=1;pointerEvents=1;dashed=0;fillColor=#036897;strokeColor=#ffffff;strokeWidth=2;verticalLabelPosition=bottom;verticalAlign=top;align=center;outlineConnect=0;" vertex="1" parent="1">
                    <mxGeometry x="563" y="150" width="43" height="58" as="geometry"/>
                </mxCell>
                <mxCell id="51" value="" style="shape=mxgraph.cisco.servers.file_server;sketch=0;html=1;pointerEvents=1;dashed=0;fillColor=#036897;strokeColor=#ffffff;strokeWidth=2;verticalLabelPosition=bottom;verticalAlign=top;align=center;outlineConnect=0;" vertex="1" parent="1">
                    <mxGeometry x="520" y="150" width="43" height="58" as="geometry"/>
                </mxCell>
                <mxCell id="57" value="" style="endArrow=classic;html=1;endSize=8;startSize=8;jumpSize=7;strokeWidth=2;entryX=0;entryY=0.5;entryDx=0;entryDy=0;entryPerimeter=0;fillColor=#008a00;strokeColor=#005700;" edge="1" parent="1">
                    <mxGeometry width="50" height="50" relative="1" as="geometry">
                        <mxPoint x="481.15999999999997" y="320" as="sourcePoint"/>
                        <mxPoint x="517" y="179" as="targetPoint"/>
                        <Array as="points">
                            <mxPoint x="481" y="180"/>
                        </Array>
                    </mxGeometry>
                </mxCell>
                <mxCell id="58" value="" style="endArrow=classic;html=1;endSize=8;startSize=8;jumpSize=7;strokeWidth=2;entryX=0;entryY=0.5;entryDx=0;entryDy=0;entryPerimeter=0;fillColor=#008a00;strokeColor=#005700;" edge="1" parent="1" target="45">
                    <mxGeometry width="50" height="50" relative="1" as="geometry">
                        <mxPoint x="480" y="380" as="sourcePoint"/>
                        <mxPoint x="480.3600000000001" y="420" as="targetPoint"/>
                        <Array as="points">
                            <mxPoint x="480" y="445"/>
                        </Array>
                    </mxGeometry>
                </mxCell>
                <mxCell id="59" value="&lt;span style=&quot;&quot;&gt;Периметр комании&lt;/span&gt;" style="text;html=1;strokeColor=none;fillColor=none;align=center;verticalAlign=middle;whiteSpace=wrap;rounded=0;opacity=20;fontColor=#FFFFFF;labelBackgroundColor=#666666;" vertex="1" parent="1">
                    <mxGeometry x="610" y="290" width="99" height="30" as="geometry"/>
                </mxCell>
                <mxCell id="60" value="&lt;font&gt;Внутренние сервисы&lt;/font&gt;" style="text;html=1;strokeColor=none;fillColor=none;align=center;verticalAlign=middle;whiteSpace=wrap;rounded=0;opacity=20;labelBackgroundColor=#666666;fontColor=#FFFFFF;" vertex="1" parent="1">
                    <mxGeometry x="560" y="490" width="99" height="30" as="geometry"/>
                </mxCell>
                <mxCell id="61" value="&lt;font&gt;Внешние&lt;br&gt;сервисы&lt;br&gt;&lt;/font&gt;" style="text;html=1;align=center;verticalAlign=middle;whiteSpace=wrap;rounded=0;opacity=20;labelBackgroundColor=#666666;fillColor=none;fontColor=#FFFFFF;" vertex="1" parent="1">
                    <mxGeometry x="370" y="140" width="99" height="30" as="geometry"/>
                </mxCell>
                <mxCell id="65" value="" style="endArrow=classic;html=1;endSize=8;startSize=8;jumpSize=7;strokeWidth=2;entryX=0.003;entryY=0.581;entryDx=0;entryDy=0;entryPerimeter=0;fillColor=#008a00;strokeColor=#005700;" edge="1" parent="1" target="44">
                    <mxGeometry width="50" height="50" relative="1" as="geometry">
                        <mxPoint x="131" y="354" as="sourcePoint"/>
                        <mxPoint x="351" y="354" as="targetPoint"/>
                    </mxGeometry>
                </mxCell>
                <mxCell id="66" value="" style="endArrow=classic;html=1;endSize=8;startSize=8;jumpSize=7;strokeWidth=2;entryX=-0.046;entryY=0.779;entryDx=0;entryDy=0;entryPerimeter=0;fillColor=#a20025;strokeColor=#6F0000;" edge="1" parent="1" target="45">
                    <mxGeometry width="50" height="50" relative="1" as="geometry">
                        <mxPoint x="130" y="410" as="sourcePoint"/>
                        <mxPoint x="410" y="464" as="targetPoint"/>
                        <Array as="points">
                            <mxPoint x="130" y="464"/>
                        </Array>
                    </mxGeometry>
                </mxCell>
                <mxCell id="67" value="Запрос напрямую заблокирован&amp;nbsp;" style="text;align=center;verticalAlign=middle;whiteSpace=wrap;rounded=0;opacity=20;labelBackgroundColor=#666666;html=1;fontColor=#FFFFFF;" vertex="1" parent="1">
                    <mxGeometry x="240" y="470" width="150" height="30" as="geometry"/>
                </mxCell>
                <mxCell id="68" value="" style="endArrow=classic;html=1;endSize=8;startSize=8;jumpSize=7;strokeWidth=2;exitX=0.12;exitY=0.417;exitDx=0;exitDy=0;exitPerimeter=0;fillColor=#008a00;strokeColor=#005700;" edge="1" parent="1">
                    <mxGeometry width="50" height="50" relative="1" as="geometry">
                        <mxPoint x="440" y="372.08000000000004" as="sourcePoint"/>
                        <mxPoint x="160" y="372" as="targetPoint"/>
                    </mxGeometry>
                </mxCell>
                <mxCell id="69" value="" style="endArrow=classic;html=1;endSize=8;startSize=8;jumpSize=7;strokeWidth=2;fillColor=#008a00;strokeColor=#005700;entryX=0.722;entryY=-0.026;entryDx=0;entryDy=0;entryPerimeter=0;" edge="1" parent="1">
                    <mxGeometry width="50" height="50" relative="1" as="geometry">
                        <mxPoint x="518" y="209" as="sourcePoint"/>
                        <mxPoint x="498.14246" y="319.43999999999994" as="targetPoint"/>
                        <Array as="points">
                            <mxPoint x="498" y="209"/>
                        </Array>
                    </mxGeometry>
                </mxCell>
                <mxCell id="70" value="" style="endArrow=classic;html=1;endSize=8;startSize=8;jumpSize=7;strokeWidth=2;fillColor=#008a00;strokeColor=#005700;entryX=0.716;entryY=1.001;entryDx=0;entryDy=0;entryPerimeter=0;exitX=0.353;exitY=0.625;exitDx=0;exitDy=0;exitPerimeter=0;" edge="1" parent="1">
                    <mxGeometry width="50" height="50" relative="1" as="geometry">
                        <mxPoint x="525.9000000000001" y="430" as="sourcePoint"/>
                        <mxPoint x="505.71388" y="380.05999999999995" as="targetPoint"/>
                        <Array as="points">
                            <mxPoint x="506" y="430"/>
                        </Array>
                    </mxGeometry>
                </mxCell>
                <mxCell id="72" value="Уязвимое web-приложение" style="text;html=1;align=center;verticalAlign=middle;whiteSpace=wrap;rounded=0;opacity=20;fontColor=#FFFFFF;labelBackgroundColor=#666666;" vertex="1" parent="1">
                    <mxGeometry x="521.5" y="344" width="88.5" height="30" as="geometry"/>
                </mxCell>
                <mxCell id="73" value="Запрос злоумышленника" style="text;html=1;strokeColor=none;fillColor=none;align=center;verticalAlign=middle;whiteSpace=wrap;rounded=0;opacity=20;labelBackgroundColor=#666666;fontColor=#FFFFFF;" vertex="1" parent="1">
                    <mxGeometry x="240" y="320" width="150" height="30" as="geometry"/>
                </mxCell>
                <mxCell id="74" value="&lt;meta charset=&quot;utf-8&quot;&gt;&lt;span style=&quot;font-family: Helvetica; font-size: 12px; font-style: normal; font-variant-ligatures: normal; font-variant-caps: normal; font-weight: 400; letter-spacing: normal; orphans: 2; text-align: center; text-indent: 0px; text-transform: none; widows: 2; word-spacing: 0px; -webkit-text-stroke-width: 0px; text-decoration-thickness: initial; text-decoration-style: initial; text-decoration-color: initial; float: none; display: inline !important;&quot;&gt;Злоумышленник&lt;/span&gt;" style="text;html=1;align=center;verticalAlign=middle;whiteSpace=wrap;rounded=0;labelBackgroundColor=#666666;opacity=20;fontColor=#FFFFFF;" vertex="1" parent="1">
                    <mxGeometry x="100" y="380" width="60" height="30" as="geometry"/>
                </mxCell>
            </root>
        </mxGraphModel>
    </diagram>
</mxfile>